<mxfile host="app.diagrams.net" modified="2024-03-19T09:49:06.168Z" agent="Mozilla/5.0 (Windows NT 10.0; Win64; x64; rv:123.0) Gecko/20100101 Firefox/123.0" etag="CWf8Du0epOQl9szTUqB_" version="24.0.7" type="device">
  <diagram name="Page-1" id="b3zmUHp8Iv-hXbjVt65-">
    <mxGraphModel dx="989" dy="527" grid="1" gridSize="10" guides="1" tooltips="1" connect="1" arrows="1" fold="1" page="1" pageScale="1" pageWidth="827" pageHeight="1169" math="0" shadow="0">
      <root>
        <mxCell id="0" />
        <mxCell id="1" parent="0" />
        <mxCell id="42B4ZOta15Qhek4Ymng9-5" style="edgeStyle=orthogonalEdgeStyle;rounded=0;orthogonalLoop=1;jettySize=auto;html=1;" edge="1" parent="1" source="42B4ZOta15Qhek4Ymng9-1" target="42B4ZOta15Qhek4Ymng9-2">
          <mxGeometry relative="1" as="geometry" />
        </mxCell>
        <mxCell id="42B4ZOta15Qhek4Ymng9-1" value="Query expansion" style="rounded=1;whiteSpace=wrap;html=1;fillColor=#dae8fc;strokeColor=#6c8ebf;" vertex="1" parent="1">
          <mxGeometry x="100" y="390" width="120" height="60" as="geometry" />
        </mxCell>
        <mxCell id="42B4ZOta15Qhek4Ymng9-6" style="edgeStyle=orthogonalEdgeStyle;rounded=0;orthogonalLoop=1;jettySize=auto;html=1;entryX=0;entryY=0.5;entryDx=0;entryDy=0;" edge="1" parent="1" source="42B4ZOta15Qhek4Ymng9-2" target="42B4ZOta15Qhek4Ymng9-3">
          <mxGeometry relative="1" as="geometry" />
        </mxCell>
        <mxCell id="42B4ZOta15Qhek4Ymng9-2" value="Candidate Retrieval" style="rounded=1;whiteSpace=wrap;html=1;fillColor=#f8cecc;strokeColor=#b85450;" vertex="1" parent="1">
          <mxGeometry x="250" y="390" width="120" height="60" as="geometry" />
        </mxCell>
        <mxCell id="42B4ZOta15Qhek4Ymng9-3" value="Reranking" style="rounded=1;whiteSpace=wrap;html=1;fillColor=#d5e8d4;strokeColor=#82b366;" vertex="1" parent="1">
          <mxGeometry x="400" y="390" width="120" height="60" as="geometry" />
        </mxCell>
      </root>
    </mxGraphModel>
  </diagram>
</mxfile>
